<svg width="1950" height="1659" viewBox="0 0 1950 1659" fill="none" xmlns="http://www.w3.org/2000/svg">
<path d="M726.14 1153.28C703.527 1153.28 680.914 1153.28 655.788 1153.28C628.149 1153.28 597.998 1153.28 567.847 1153.28C419.604 1180.92 246.234 1203.53 118.092 1211.07C115.579 1211.07 113.067 1211.07 110.554 1211.07C85.4283 1211.07 3.48576e-05 1206.05 3.48576e-05 1193.48C3.48576e-05 1188.46 12.563 1183.43 40.2016 1175.89C90.4535 1165.84 175.882 1158.31 226.134 1153.28C311.562 1143.23 409.553 1138.21 510.057 1130.67C605.536 1113.08 695.989 1090.47 786.443 1067.85C801.518 1045.24 819.106 1022.63 831.669 1005.04C806.543 1007.55 783.93 1010.06 758.804 1010.06C590.46 1010.06 434.679 924.635 434.679 756.291C434.679 701.014 454.78 648.25 467.343 615.586C487.444 555.284 520.107 507.544 580.41 434.679C633.174 369.352 718.602 283.923 834.182 206.033C1002.53 95.4787 1233.68 -6.40961e-05 1517.61 -6.40961e-05C1522.63 -6.40961e-05 1525.15 -6.40961e-05 1530.17 -6.40961e-05C1738.72 2.51265 1949.77 52.7645 1949.77 256.285C1949.77 283.923 1939.72 329.15 1937.21 341.713C1927.16 389.452 1904.55 432.167 1869.37 487.444C1834.2 542.721 1783.94 605.536 1716.1 670.863C1608.06 771.367 1452.28 869.358 1316.6 929.661C1271.37 949.761 1243.74 962.324 1243.74 962.324C1138.21 1007.55 949.761 1065.34 796.493 1103.03C791.468 1110.57 786.443 1118.11 781.417 1125.64C834.182 1125.64 899.509 1130.67 932.173 1138.21C959.812 1143.23 1015.09 1173.38 1015.09 1218.61C1015.09 1258.81 987.45 1291.47 962.324 1319.11C886.946 1409.57 763.829 1507.56 668.351 1570.37C615.586 1608.06 562.822 1635.7 507.544 1653.29C500.007 1655.8 492.469 1658.31 487.444 1658.31C464.83 1658.31 457.293 1643.24 457.293 1623.14C457.293 1608.06 462.318 1587.96 469.856 1570.37C479.906 1547.76 492.469 1520.12 510.057 1487.46C562.822 1391.98 655.788 1253.79 726.14 1153.28ZM444.73 751.266C444.73 912.072 592.973 989.963 753.779 989.963C783.93 989.963 816.594 984.938 849.258 979.912C891.972 919.61 929.661 869.358 957.299 831.669C1010.06 758.804 1090.47 648.25 1138.21 570.359C1145.74 557.796 1155.79 547.746 1155.79 537.696H1153.28C1153.28 535.183 1153.28 535.183 1153.28 532.67C1153.28 522.62 1163.33 512.57 1173.38 512.57C1188.46 512.57 1193.48 520.107 1193.48 530.158C1193.48 550.259 1175.9 580.41 1170.87 590.46C1120.62 668.351 1037.7 778.905 984.938 851.77C967.349 874.383 922.123 934.686 894.484 972.375C959.812 959.812 1037.7 932.173 1080.42 917.098C1113.08 907.047 1211.07 869.358 1238.71 849.257C1241.22 846.745 1243.74 846.745 1246.25 846.745C1253.79 846.745 1261.32 854.283 1261.32 861.82C1261.32 881.921 1216.1 891.972 1198.51 899.509C1178.41 907.047 1095.49 937.198 1087.95 939.711C1040.21 957.299 949.761 984.938 874.383 997.501C861.82 1017.6 846.745 1035.19 834.182 1055.29C977.4 1012.58 1125.64 957.299 1226.15 919.61C1454.79 826.644 1706.05 658.3 1831.68 462.318C1866.86 407.04 1876.91 374.377 1894.5 329.15C1902.04 309.049 1904.55 281.411 1904.55 253.772C1904.55 223.621 1899.52 195.982 1889.47 173.369C1834.2 65.3275 1668.36 32.6637 1500.02 32.6637C1492.48 32.6637 1484.94 32.6637 1477.41 32.6637C1077.9 40.2016 771.367 238.697 590.46 444.73C527.645 517.595 507.544 562.822 474.881 618.099C462.318 645.737 444.73 701.014 444.73 751.266ZM753.779 1113.08C738.703 1118.11 721.115 1120.62 706.04 1125.64C718.602 1125.64 733.678 1125.64 746.241 1125.64C748.754 1120.62 751.266 1118.11 753.779 1113.08ZM758.804 1155.79C685.939 1256.3 585.435 1399.52 527.645 1497.51C502.519 1540.22 484.931 1567.86 474.881 1608.06C464.83 1638.21 472.368 1648.26 505.032 1645.75C555.284 1633.19 613.073 1592.99 660.813 1557.81C751.266 1494.99 871.871 1394.49 944.736 1304.04C959.812 1281.42 984.938 1251.27 984.938 1223.63C984.938 1208.56 977.4 1196 957.299 1185.95C939.711 1175.89 922.123 1173.38 922.123 1173.38C884.434 1163.33 821.619 1155.79 758.804 1155.79ZM364.326 1160.82C311.562 1163.33 263.823 1165.84 228.646 1168.36C175.882 1173.38 82.9157 1180.92 35.1764 1193.48C42.7142 1196 50.252 1196 57.7897 1196C80.4031 1196 105.529 1193.48 115.579 1193.48C178.394 1188.46 256.285 1178.41 364.326 1160.82ZM1188.1 1140.72C1198.16 1125.64 1240.87 1080.42 1271.02 1080.42C1283.58 1080.42 1293.63 1087.95 1301.17 1105.54C1303.68 1110.57 1306.2 1120.62 1306.2 1128.16C1306.2 1160.82 1281.07 1196 1268.51 1213.58C1238.36 1253.79 1183.08 1311.58 1122.78 1316.6C1117.75 1316.6 1115.24 1316.6 1112.73 1316.6C1087.6 1316.6 1077.55 1304.04 1077.55 1283.94C1077.55 1228.66 1150.42 1120.62 1162.98 1105.54C1250.92 977.4 1376.55 824.132 1494.64 701.014C1529.82 660.813 1554.94 625.636 1595.15 603.023C1622.78 587.947 1625.3 618.099 1615.25 635.687C1580.07 693.476 1532.33 748.754 1484.59 804.031C1396.65 904.535 1278.56 1032.68 1200.67 1123.13C1195.64 1128.16 1193.13 1133.18 1188.1 1140.72ZM1263.48 1032.68C1366.5 919.61 1492.13 786.443 1577.56 655.788C1474.54 761.317 1348.91 922.123 1263.48 1032.68ZM1230.82 1185.95C1235.84 1175.89 1263.48 1135.69 1263.48 1118.11C1263.48 1113.08 1260.97 1108.05 1255.94 1108.05C1250.92 1108.05 1245.89 1110.57 1240.87 1113.08C1183.08 1135.69 1135.34 1206.05 1112.73 1263.84C1110.21 1271.37 1110.21 1273.89 1110.21 1281.42C1110.21 1283.94 1110.21 1286.45 1115.24 1286.45C1127.8 1286.45 1168 1258.81 1173.03 1253.79C1193.13 1236.2 1215.74 1206.05 1230.82 1185.95Z" fill="url(#paint0_linear_16880_75)"/>
<defs>
<linearGradient id="paint0_linear_16880_75" x1="665.516" y1="512.078" x2="631.516" y2="2183.08" gradientUnits="userSpaceOnUse">
<stop stop-color="#F3F3F3"/>
<stop offset="1" stop-color="#F9EDDE"/>
</linearGradient>
</defs>
</svg>
