<svg width="197" height="167" viewBox="0 0 197 167" fill="none" xmlns="http://www.w3.org/2000/svg">
<path d="M73.0432 116.01C70.7685 116.01 68.4938 116.01 65.9664 116.01C63.1862 116.01 60.1532 116.01 57.1203 116.01C42.2084 118.79 24.769 121.065 11.879 121.823C11.6263 121.823 11.3735 121.823 11.1208 121.823C8.59332 121.823 0 121.317 0 120.054C0 119.548 1.26372 119.043 4.04391 118.285C9.09881 117.274 17.6921 116.515 22.747 116.01C31.3403 114.999 41.1974 114.493 51.3072 113.735C60.9115 111.966 70.0103 109.691 79.1091 107.417C80.6256 105.142 82.3948 102.867 83.6585 101.098C81.1311 101.351 78.8563 101.603 76.3289 101.603C59.395 101.603 43.7248 93.0101 43.7248 76.0762C43.7248 70.5158 45.7468 65.2081 47.0105 61.9225C49.0325 55.8566 52.3182 51.0544 58.384 43.7248C63.6917 37.1535 72.285 28.5602 83.9112 20.7251C100.845 9.60431 124.098 0 152.658 0C153.163 0 153.416 0 153.922 0C174.899 0.252757 196.13 5.30764 196.13 25.78C196.13 28.5602 195.119 33.1096 194.866 34.3733C193.855 39.1754 191.581 43.4721 188.042 49.0325C184.504 54.5929 179.449 60.9115 172.625 67.4828C161.757 77.5926 146.086 87.4497 132.438 93.5155C127.889 95.5375 125.109 96.8012 125.109 96.8012C114.493 101.351 95.5375 107.164 80.1201 110.955C79.6146 111.713 79.1091 112.471 78.6036 113.23C83.9112 113.23 90.4826 113.735 93.7683 114.493C96.5485 114.999 102.109 118.032 102.109 122.581C102.109 126.625 99.3287 129.911 96.8012 132.691C89.2189 141.79 76.8344 151.647 67.2301 157.965C61.9225 161.757 56.6148 164.537 51.0544 166.306C50.2962 166.559 49.538 166.812 49.0325 166.812C46.7578 166.812 45.9995 165.295 45.9995 163.273C45.9995 161.757 46.505 159.735 47.2633 157.965C48.2742 155.691 49.538 152.911 51.3072 149.625C56.6148 140.021 65.9664 126.12 73.0432 116.01ZM44.7358 75.5707C44.7358 91.7463 59.6478 99.5814 75.8234 99.5814C78.8564 99.5814 82.142 99.0759 85.4277 98.5704C89.7244 92.5046 93.5155 87.4497 96.2957 83.6585C101.603 76.3289 109.691 65.2081 114.493 57.3731C115.252 56.1093 116.263 55.0984 116.263 54.0874H116.01C116.01 53.8346 116.01 53.8346 116.01 53.5819C116.01 52.5709 117.021 51.5599 118.032 51.5599C119.548 51.5599 120.054 52.3182 120.054 53.3291C120.054 55.3511 118.285 58.384 117.779 59.395C112.724 67.2301 104.384 78.3509 99.0759 85.6805C97.3067 87.9552 92.7573 94.021 89.9771 97.8122C96.5485 96.5485 104.384 93.7683 108.68 92.2518C111.966 91.2408 121.823 87.4497 124.603 85.4277C124.856 85.175 125.109 85.175 125.361 85.175C126.12 85.175 126.878 85.9332 126.878 86.6914C126.878 88.7134 122.328 89.7244 120.559 90.4826C118.537 91.2409 110.197 94.2738 109.438 94.5265C104.636 96.2958 95.5375 99.0759 87.9552 100.34C86.6914 102.362 85.175 104.131 83.9112 106.153C98.3177 101.856 113.23 96.2957 123.339 92.5046C146.339 83.153 171.614 66.2191 184.251 46.505C187.789 40.9446 188.8 37.659 190.57 33.1096C191.328 31.0876 191.581 28.3074 191.581 25.5272C191.581 22.4943 191.075 19.7141 190.064 17.4394C184.504 6.57137 167.822 3.28568 150.889 3.28568C150.13 3.28568 149.372 3.28568 148.614 3.28568C108.427 4.04392 77.5926 24.0108 59.395 44.7358C53.0764 52.0654 51.0544 56.6148 47.7688 62.1752C46.505 64.9554 44.7358 70.5158 44.7358 75.5707ZM75.8234 111.966C74.3069 112.471 72.5377 112.724 71.0213 113.23C72.285 113.23 73.8015 113.23 75.0652 113.23C75.3179 112.724 75.5707 112.471 75.8234 111.966ZM76.3289 116.263C68.9993 126.372 58.8895 140.779 53.0764 150.636C50.5489 154.933 48.7797 157.713 47.7688 161.757C46.7578 164.79 47.516 165.801 50.8017 165.548C55.8566 164.284 61.6697 160.24 66.4719 156.702C75.5707 150.383 87.7024 140.273 95.032 131.175C96.5485 128.9 99.0759 125.867 99.0759 123.087C99.0759 121.57 98.3177 120.306 96.2957 119.296C94.5265 118.285 92.7573 118.032 92.7573 118.032C88.9661 117.021 82.6475 116.263 76.3289 116.263ZM36.648 116.768C31.3403 117.021 26.5382 117.274 22.9998 117.526C17.6921 118.032 8.34058 118.79 3.53843 120.054C4.29666 120.306 5.05489 120.306 5.81313 120.306C8.08783 120.306 10.6153 120.054 11.6263 120.054C17.9449 119.548 25.78 118.537 36.648 116.768Z" fill="#5B5248"/>
<path d="M119.513 114.746C120.524 113.23 124.82 108.68 127.853 108.68C129.117 108.68 130.128 109.438 130.886 111.208C131.139 111.713 131.392 112.724 131.392 113.482C131.392 116.768 128.864 120.306 127.601 122.076C124.568 126.12 119.007 131.933 112.941 132.438C112.436 132.438 112.183 132.438 111.93 132.438C109.403 132.438 108.392 131.175 108.392 129.153C108.392 123.592 115.722 112.724 116.985 111.208C125.831 98.3177 138.469 82.9003 150.348 70.5158C153.886 66.4719 156.413 62.9334 160.457 60.6587C163.238 59.1423 163.49 62.1752 162.479 63.9444C158.941 69.7575 154.139 75.3179 149.337 80.8783C140.491 90.9881 128.612 103.878 120.776 112.977C120.271 113.482 120.018 113.988 119.513 114.746ZM127.095 103.878C137.458 92.5046 150.095 79.1091 158.688 65.9664C148.326 76.5816 135.688 92.7573 127.095 103.878ZM123.809 119.296C124.315 118.285 127.095 114.241 127.095 112.471C127.095 111.966 126.842 111.46 126.337 111.46C125.831 111.46 125.326 111.713 124.82 111.966C119.007 114.241 114.205 121.317 111.93 127.131C111.678 127.889 111.678 128.142 111.678 128.9C111.678 129.153 111.678 129.405 112.183 129.405C113.447 129.405 117.491 126.625 117.996 126.12C120.018 124.35 122.293 121.317 123.809 119.296Z" fill="#5B5248"/>
</svg>
