<svg width="164" height="139" viewBox="0 0 164 139" fill="none" xmlns="http://www.w3.org/2000/svg">
<path d="M60.7709 96.5186C58.8783 96.5186 56.9858 96.5186 54.883 96.5186C52.5699 96.5186 50.0466 96.5186 47.5232 96.5186C35.1167 98.8317 20.6074 100.724 9.88317 101.355C9.67289 101.355 9.46261 101.355 9.25233 101.355C7.14953 101.355 2.38367e-05 100.934 2.38367e-05 99.8831C2.38367e-05 99.4625 1.05142 99.0419 3.3645 98.4111C7.57009 97.57 14.7196 96.9392 18.9252 96.5186C26.0747 95.6775 34.2756 95.2569 42.6868 94.6261C50.6774 93.1541 58.2475 91.2616 65.8176 89.3691C67.0792 87.4766 68.5512 85.584 69.6026 84.1121C67.4998 84.3224 65.6073 84.5327 63.5045 84.5327C49.4157 84.5327 36.3784 77.3831 36.3784 63.2944C36.3784 58.6683 38.0606 54.2524 39.112 51.5187C40.7943 46.472 43.5279 42.4767 48.5746 36.3786C52.9905 30.9113 60.14 23.7618 69.8129 17.2431C83.9016 7.99085 103.247 0.000211311 127.009 0.000211311C127.43 0.000211311 127.64 0.000211311 128.06 0.000211311C145.514 0.210501 163.177 4.41609 163.177 21.4487C163.177 23.7618 162.336 27.5469 162.126 28.5983C161.285 32.5936 159.392 36.1683 156.448 40.7945C153.504 45.4206 149.299 50.6776 143.621 56.1449C134.579 64.5561 121.542 72.757 110.187 77.8037C106.402 79.4859 104.088 80.5373 104.088 80.5373C95.2567 84.3224 79.4857 89.1588 66.6587 92.313C66.2381 92.9438 65.8176 93.5747 65.397 94.2055C69.8129 94.2055 75.2802 94.6261 78.0138 95.2569C80.3269 95.6775 84.953 98.2008 84.953 101.986C84.953 105.35 82.6399 108.084 80.5371 110.397C74.2288 117.967 63.925 126.168 55.9344 131.425C51.5185 134.579 47.1027 136.892 42.4765 138.364C41.8457 138.575 41.2148 138.785 40.7943 138.785C38.9018 138.785 38.2709 137.523 38.2709 135.841C38.2709 134.579 38.6915 132.897 39.3223 131.425C40.1634 129.533 41.2148 127.219 42.6868 124.486C47.1027 116.495 54.883 104.93 60.7709 96.5186ZM37.2195 62.8738C37.2195 76.3317 49.626 82.8504 63.0839 82.8504C65.6073 82.8504 68.3409 82.4299 71.0746 82.0093C74.6493 76.9626 77.8035 72.757 80.1166 69.6028C84.5325 63.5047 91.2614 54.2524 95.2567 47.7337C95.8876 46.6823 96.7287 45.8412 96.7287 45.0001H96.5184C96.5184 44.7898 96.5184 44.7898 96.5184 44.5795C96.5184 43.7384 97.3595 42.8973 98.2006 42.8973C99.4623 42.8973 99.8829 43.5281 99.8829 44.3692C99.8829 46.0515 98.4109 48.5748 97.9904 49.4159C93.7848 55.9346 86.8455 65.1869 82.4297 71.285C80.9577 73.1775 77.1727 78.2243 74.8596 81.3785C80.3269 80.3271 86.8455 78.014 90.4203 76.7523C93.1539 75.9112 101.355 72.757 103.668 71.0747C103.878 70.8645 104.088 70.8645 104.299 70.8645C104.93 70.8645 105.56 71.4953 105.56 72.1261C105.56 73.8084 101.775 74.6495 100.303 75.2803C98.6212 75.9112 91.682 78.4345 91.0511 78.6448C87.0558 80.1168 79.4857 82.4299 73.1774 83.4813C72.126 85.1635 70.8643 86.6354 69.8129 88.3177C81.7988 84.7429 94.2053 80.1168 102.617 76.9626C121.752 69.1822 142.78 55.0935 153.294 38.6917C156.238 34.0655 157.079 31.3319 158.551 27.5469C159.182 25.8646 159.392 23.5515 159.392 21.2385C159.392 18.7151 158.971 16.402 158.13 14.5095C153.504 5.46749 139.626 2.73385 125.537 2.73385C124.906 2.73385 124.275 2.73385 123.644 2.73385C90.21 3.36469 64.5559 19.9768 49.4157 37.2197C44.1588 43.3178 42.4765 47.1029 39.7429 51.729C38.6915 54.0421 37.2195 58.6683 37.2195 62.8738ZM63.0839 93.1541C61.8223 93.5747 60.3503 93.785 59.0886 94.2055C60.14 94.2055 61.4017 94.2055 62.4531 94.2055C62.6634 93.785 62.8737 93.5747 63.0839 93.1541ZM63.5045 96.7289C57.4064 105.14 48.9952 117.126 44.1588 125.327C42.056 128.902 40.584 131.215 39.7429 134.579C38.9018 137.103 39.5326 137.944 42.2662 137.733C46.4718 136.682 51.3083 133.318 55.3036 130.374C62.8737 125.117 72.9671 116.705 79.0652 109.135C80.3269 107.243 82.4297 104.719 82.4297 102.406C82.4297 101.145 81.7988 100.093 80.1166 99.2522C78.6446 98.4111 77.1727 98.2008 77.1727 98.2008C74.0185 97.3597 68.7615 96.7289 63.5045 96.7289ZM30.4906 97.1494C26.0747 97.3597 22.0794 97.57 19.1355 97.7803C14.7196 98.2008 6.93925 98.8317 2.94394 99.8831C3.57478 100.093 4.20562 100.093 4.83646 100.093C6.72897 100.093 8.83177 99.8831 9.67289 99.8831C14.9299 99.4625 21.4486 98.6214 30.4906 97.1494ZM99.4327 95.4672C100.274 94.2055 103.849 90.4205 106.372 90.4205C107.423 90.4205 108.264 91.0513 108.895 92.5233C109.106 92.9438 109.316 93.785 109.316 94.4158C109.316 97.1494 107.213 100.093 106.162 101.565C103.638 104.93 99.0122 109.766 93.9655 110.187C93.5449 110.187 93.3346 110.187 93.1244 110.187C91.0216 110.187 90.1804 109.135 90.1804 107.453C90.1804 102.827 96.2786 93.785 97.3299 92.5233C104.69 81.799 115.204 68.972 125.087 58.6683C128.031 55.3038 130.134 52.3599 133.498 50.4673C135.811 49.2057 136.021 51.729 135.18 53.201C132.236 58.0374 128.241 62.6636 124.246 67.2897C116.886 75.7009 107.003 86.4252 100.484 93.9952C100.064 94.4158 99.8533 94.8364 99.4327 95.4672ZM105.741 86.4252C114.363 76.9626 124.877 65.8178 132.026 54.8832C123.405 63.715 112.891 77.1729 105.741 86.4252ZM103.008 99.2522C103.428 98.4111 105.741 95.0466 105.741 93.5747C105.741 93.1541 105.531 92.7336 105.11 92.7336C104.69 92.7336 104.269 92.9438 103.849 93.1541C99.0122 95.0466 95.0169 100.934 93.1244 105.771C92.9141 106.402 92.9141 106.612 92.9141 107.243C92.9141 107.453 92.9141 107.663 93.3346 107.663C94.386 107.663 97.7505 105.35 98.1711 104.93C99.8533 103.458 101.746 100.934 103.008 99.2522Z" fill="#DBC2A3"/>
</svg>
