<svg width="97" height="83" viewBox="0 0 97 83" fill="none" xmlns="http://www.w3.org/2000/svg">
<path d="M36.1246 57.3742C34.9996 57.3742 33.8746 57.3742 32.6246 57.3742C31.2496 57.3742 29.7497 57.3742 28.2497 57.3742C20.8748 58.7492 12.2499 59.8742 5.87498 60.2492C5.74998 60.2492 5.62498 60.2492 5.49999 60.2492C4.25 60.2492 5.87057e-05 59.9992 5.87057e-05 59.3742C5.87057e-05 59.1242 0.62505 58.8742 2.00003 58.4992C4.5 57.9992 8.74994 57.6242 11.2499 57.3742C15.4999 56.8742 20.3748 56.6242 25.3747 56.2492C30.1247 55.3742 34.6246 54.2493 39.1245 53.1243C39.8745 51.9993 40.7495 50.8743 41.3745 49.9993C40.1245 50.1243 38.9995 50.2493 37.7496 50.2493C29.3747 50.2493 21.6248 45.9994 21.6248 37.6245C21.6248 34.8745 22.6248 32.2495 23.2497 30.6246C24.2497 27.6246 25.8747 25.2496 28.8747 21.6247C31.4996 18.3747 35.7496 14.1248 41.4995 10.2498C49.8744 4.74992 61.3742 -2.33673e-05 75.499 -2.33673e-05C75.749 -2.33673e-05 75.874 -2.33673e-05 76.124 -2.33673e-05C86.4989 0.124981 96.9988 2.62494 96.9988 12.7498C96.9988 14.1248 96.4988 16.3748 96.3738 16.9998C95.8738 19.3747 94.7488 21.4997 92.9988 24.2497C91.2488 26.9996 88.7489 30.1246 85.3739 33.3745C79.999 38.3745 72.2491 43.2494 65.4992 46.2494C63.2492 47.2493 61.8742 47.8743 61.8742 47.8743C56.6243 50.1243 47.2494 52.9993 39.6245 54.8742C39.3745 55.2492 39.1245 55.6242 38.8745 55.9992C41.4995 55.9992 44.7495 56.2492 46.3744 56.6242C47.7494 56.8742 50.4994 58.3742 50.4994 60.6242C50.4994 62.6241 49.1244 64.2491 47.8744 65.6241C44.1245 70.124 37.9995 74.999 33.2496 78.1239C30.6247 79.9989 27.9997 81.3739 25.2497 82.2489C24.8747 82.3739 24.4997 82.4989 24.2497 82.4989C23.1247 82.4989 22.7498 81.7489 22.7498 80.7489C22.7498 79.9989 22.9998 78.9989 23.3747 78.1239C23.8747 76.9989 24.4997 75.624 25.3747 73.999C27.9997 69.2491 32.6246 62.3741 36.1246 57.3742ZM22.1248 37.3745C22.1248 45.3744 29.4997 49.2493 37.4996 49.2493C38.9995 49.2493 40.6245 48.9993 42.2495 48.7493C44.3745 45.7494 46.2494 43.2494 47.6244 41.3744C50.2494 37.7495 54.2493 32.2495 56.6243 28.3746C56.9993 27.7496 57.4993 27.2496 57.4993 26.7496H57.3743C57.3743 26.6246 57.3743 26.6246 57.3743 26.4996C57.3743 25.9996 57.8743 25.4996 58.3743 25.4996C59.1243 25.4996 59.3743 25.8746 59.3743 26.3746C59.3743 27.3746 58.4993 28.8746 58.2493 29.3746C55.7493 33.2495 51.6244 38.7495 48.9994 42.3744C48.1244 43.4994 45.8744 46.4994 44.4995 48.3743C47.7494 47.7493 51.6244 46.3744 53.7493 45.6244C55.3743 45.1244 60.2493 43.2494 61.6242 42.2494C61.7492 42.1244 61.8742 42.1244 61.9992 42.1244C62.3742 42.1244 62.7492 42.4994 62.7492 42.8744C62.7492 43.8744 60.4992 44.3744 59.6243 44.7494C58.6243 45.1244 54.4993 46.6244 54.1243 46.7494C51.7494 47.6243 47.2494 48.9993 43.4995 49.6243C42.8745 50.6243 42.1245 51.4993 41.4995 52.4993C48.6244 50.3743 55.9993 47.6243 60.9992 45.7494C72.3741 41.1244 84.8739 32.7495 91.1238 22.9997C92.8738 20.2497 93.3738 18.6247 94.2488 16.3748C94.6238 15.3748 94.7488 13.9998 94.7488 12.6248C94.7488 11.1248 94.4988 9.74985 93.9988 8.62486C91.2488 3.24994 82.9989 1.62496 74.6241 1.62496C74.2491 1.62496 73.8741 1.62496 73.4991 1.62496C53.6243 1.99995 38.3745 11.8748 29.3747 22.1247C26.2497 25.7496 25.2497 27.9996 23.6247 30.7496C22.9998 32.1245 22.1248 34.8745 22.1248 37.3745ZM37.4996 55.3742C36.7496 55.6242 35.8746 55.7492 35.1246 55.9992C35.7496 55.9992 36.4996 55.9992 37.1246 55.9992C37.2496 55.7492 37.3746 55.6242 37.4996 55.3742ZM37.7496 57.4992C34.1246 62.4991 29.1247 69.624 26.2497 74.499C24.9997 76.624 24.1247 77.9989 23.6247 79.9989C23.1247 81.4989 23.4997 81.9989 25.1247 81.8739C27.6247 81.2489 30.4996 79.2489 32.8746 77.4989C37.3746 74.374 43.3745 69.3741 46.9994 64.8741C47.7494 63.7491 48.9994 62.2491 48.9994 60.8742C48.9994 60.1242 48.6244 59.4992 47.6244 58.9992C46.7494 58.4992 45.8744 58.3742 45.8744 58.3742C43.9995 57.8742 40.8745 57.4992 37.7496 57.4992ZM18.1248 57.7492C15.4999 57.8742 13.1249 57.9992 11.3749 58.1242C8.74994 58.3742 4.125 58.7492 1.75004 59.3742C2.12503 59.4992 2.50003 59.4992 2.87502 59.4992C4.00001 59.4992 5.24999 59.3742 5.74998 59.3742C8.87494 59.1242 12.7499 58.6242 18.1248 57.7492ZM59.1067 56.7492C59.6067 55.9992 61.7316 53.7493 63.2316 53.7493C63.8566 53.7493 64.3566 54.1243 64.7316 54.9992C64.8566 55.2492 64.9816 55.7492 64.9816 56.1242C64.9816 57.7492 63.7316 59.4992 63.1066 60.3742C61.6067 62.3741 58.8567 65.2491 55.8567 65.4991C55.6067 65.4991 55.4817 65.4991 55.3567 65.4991C54.1068 65.4991 53.6068 64.8741 53.6068 63.8741C53.6068 61.1242 57.2317 55.7492 57.8567 54.9992C62.2316 48.6243 68.4816 40.9994 74.3565 34.8745C76.1065 32.8745 77.3564 31.1246 79.3564 29.9996C80.7314 29.2496 80.8564 30.7496 80.3564 31.6246C78.6064 34.4995 76.2315 37.2495 73.8565 39.9994C69.4815 44.9994 63.6066 51.3743 59.7317 55.8742C59.4817 56.1242 59.3567 56.3742 59.1067 56.7492ZM62.8566 51.3743C67.9816 45.7494 74.2315 39.1245 78.4814 32.6245C73.3565 37.8745 67.1066 45.8744 62.8566 51.3743ZM61.2317 58.9992C61.4817 58.4992 62.8566 56.4992 62.8566 55.6242C62.8566 55.3742 62.7316 55.1242 62.4816 55.1242C62.2316 55.1242 61.9816 55.2492 61.7316 55.3742C58.8567 56.4992 56.4817 59.9992 55.3567 62.8741C55.2317 63.2491 55.2317 63.3741 55.2317 63.7491C55.2317 63.8741 55.2317 63.9991 55.4817 63.9991C56.1067 63.9991 58.1067 62.6241 58.3567 62.3741C59.3567 61.4992 60.4817 59.9992 61.2317 58.9992Z" fill="#51483F"/>
</svg>
