<svg width="254" height="216" viewBox="0 0 254 216" fill="none" xmlns="http://www.w3.org/2000/svg">
<path d="M94.5836 150.221C91.638 150.221 88.6925 150.221 85.4197 150.221C81.8197 150.221 77.8923 150.221 73.965 150.221C54.6555 153.821 32.0732 156.767 15.382 157.749C15.0547 157.749 14.7274 157.749 14.4001 157.749C11.1273 157.749 -0.000159682 157.094 -0.000159682 155.458C-0.000159682 154.803 1.63624 154.149 5.23631 153.167C11.7819 151.858 22.9094 150.876 29.455 150.221C40.5825 148.912 53.3464 148.258 66.4375 147.276C78.8741 144.985 90.6562 142.039 102.438 139.094C104.402 136.148 106.693 133.203 108.329 130.912C105.056 131.239 102.111 131.566 98.8382 131.566C76.9105 131.566 56.6192 120.439 56.6192 98.5111C56.6192 91.3109 59.2374 84.4381 60.8738 80.1834C63.492 72.3287 67.7467 66.1104 75.6014 56.6193C82.4742 48.11 93.6017 36.9826 108.657 26.8369C130.584 12.4366 160.694 -8.38783e-06 197.677 -8.38783e-06C198.331 -8.38783e-06 198.658 -8.38783e-06 199.313 -8.38783e-06C226.477 0.327286 253.969 6.87287 253.969 33.3825C253.969 36.9826 252.659 42.8736 252.332 44.51C251.023 50.7283 248.078 56.292 243.496 63.4922C238.914 70.6923 232.368 78.8743 223.532 87.3836C209.459 100.475 189.167 113.239 171.494 121.093C165.603 123.712 162.003 125.348 162.003 125.348C148.257 131.239 123.711 138.766 103.747 143.676C103.093 144.657 102.438 145.639 101.784 146.621C108.657 146.621 117.166 147.276 121.42 148.258C125.021 148.912 132.221 152.839 132.221 158.73C132.221 163.967 128.621 168.222 125.348 171.822C115.529 183.604 99.4927 196.368 87.0561 204.55C80.1833 209.459 73.3104 213.059 66.1103 215.35C65.1284 215.677 64.1466 216.004 63.492 216.004C60.5465 216.004 59.5647 214.041 59.5647 211.422C59.5647 209.459 60.2192 206.841 61.2011 204.55C62.5102 201.604 64.1466 198.004 66.4375 193.749C73.3104 181.313 85.4197 163.312 94.5836 150.221ZM57.9283 97.8565C57.9283 118.802 77.2378 128.948 98.1836 128.948C102.111 128.948 106.366 128.293 110.62 127.639C116.184 119.784 121.093 113.239 124.693 108.329C131.566 98.8383 142.039 84.4381 148.257 74.2924C149.239 72.656 150.548 71.3469 150.548 70.0378H150.221C150.221 69.7105 150.221 69.7105 150.221 69.3832C150.221 68.0741 151.53 66.765 152.839 66.765C154.803 66.765 155.457 67.7468 155.457 69.0559C155.457 71.6742 153.167 75.6015 152.512 76.9106C145.966 87.0563 135.166 101.457 128.293 110.948C126.002 113.893 120.111 121.748 116.511 126.657C125.021 125.021 135.166 121.421 140.73 119.457C144.985 118.148 157.748 113.239 161.349 110.62C161.676 110.293 162.003 110.293 162.33 110.293C163.312 110.293 164.294 111.275 164.294 112.257C164.294 114.875 158.403 116.184 156.112 117.166C153.494 118.148 142.694 122.075 141.712 122.402C135.493 124.693 123.711 128.293 113.893 129.93C112.257 132.548 110.293 134.839 108.657 137.457C127.311 131.894 146.621 124.693 159.712 119.784C189.495 107.675 222.222 85.7472 238.586 60.2194C243.168 53.0192 244.477 48.7646 246.768 42.8736C247.75 40.2553 248.078 36.6553 248.078 33.0552C248.078 29.1279 247.423 25.5278 246.114 22.5823C238.914 8.50926 217.313 4.25463 195.386 4.25463C194.404 4.25463 193.422 4.25463 192.44 4.25463C140.403 5.23647 100.475 31.0915 76.9105 57.9284C68.7285 67.4195 66.1103 73.3106 61.8556 80.5107C60.2192 84.1108 57.9283 91.3109 57.9283 97.8565ZM98.1836 144.985C96.22 145.639 93.929 145.967 91.9653 146.621C93.6017 146.621 95.5654 146.621 97.2018 146.621C97.5291 145.967 97.8563 145.639 98.1836 144.985ZM98.8382 150.548C89.3471 163.64 76.2559 182.295 68.7285 195.058C65.4557 200.622 63.1647 204.222 61.8556 209.459C60.5465 213.386 61.5283 214.695 65.783 214.368C72.3286 212.732 79.856 207.495 86.0743 202.913C97.8563 194.731 113.566 181.64 123.057 169.858C125.021 166.912 128.293 162.985 128.293 159.385C128.293 157.421 127.311 155.785 124.693 154.476C122.402 153.167 120.111 152.839 120.111 152.839C115.202 151.53 107.02 150.548 98.8382 150.548ZM47.4553 151.203C40.5825 151.53 34.3642 151.858 29.7823 152.185C22.9094 152.839 10.8001 153.821 4.58175 155.458C5.56359 155.785 6.54543 155.785 7.52726 155.785C10.4728 155.785 13.7456 155.458 15.0547 155.458C23.2367 154.803 33.3823 153.494 47.4553 151.203ZM154.757 148.585C156.066 146.621 161.63 140.73 165.557 140.73C167.193 140.73 168.503 141.712 169.484 144.003C169.812 144.657 170.139 145.967 170.139 146.948C170.139 151.203 166.866 155.785 165.23 158.076C161.302 163.312 154.102 170.84 146.248 171.494C145.593 171.494 145.266 171.494 144.939 171.494C141.666 171.494 140.357 169.858 140.357 167.24C140.357 160.04 149.848 145.967 151.484 144.003C162.939 127.312 179.303 107.348 194.685 91.3109C199.267 86.0745 202.54 81.4925 207.776 78.547C211.376 76.5833 211.703 80.5107 210.394 82.8017C205.812 90.3291 199.594 97.5292 193.376 104.729C181.921 117.821 166.539 134.512 156.393 146.294C155.739 146.948 155.411 147.603 154.757 148.585ZM164.575 134.512C177.994 119.784 194.358 102.438 205.485 85.4199C192.067 99.1656 175.703 120.111 164.575 134.512ZM160.321 154.476C160.975 153.167 164.575 147.93 164.575 145.639C164.575 144.985 164.248 144.33 163.593 144.33C162.939 144.33 162.284 144.657 161.63 144.985C154.102 147.93 147.884 157.094 144.939 164.621C144.611 165.603 144.611 165.931 144.611 166.912C144.611 167.24 144.611 167.567 145.266 167.567C146.902 167.567 152.139 163.967 152.793 163.312C155.411 161.021 158.357 157.094 160.321 154.476Z" fill="url(#paint0_linear_17043_1807)"/>
<defs>
<linearGradient id="paint0_linear_17043_1807" x1="82.2582" y1="-53.1228" x2="82.2582" y2="284.825" gradientUnits="userSpaceOnUse">
<stop stop-color="#E5C499"/>
<stop offset="1" stop-color="#B7A38E"/>
</linearGradient>
</defs>
</svg>
