<svg width="46" height="46" viewBox="0 0 46 46" fill="none" xmlns="http://www.w3.org/2000/svg">
<path d="M42.0742 45.6805C43.0307 45.6805 43.9479 45.3006 44.6243 44.6243C45.3006 43.9479 45.6805 43.0307 45.6805 42.0742V33.6594C45.6805 32.7029 45.3006 31.7856 44.6243 31.1093C43.9479 30.4329 43.0307 30.053 42.0742 30.053C39.2612 30.053 36.4964 29.6202 33.8517 28.7307C33.2194 28.5311 32.5445 28.5085 31.9003 28.6653C31.2561 28.8221 30.6671 29.1524 30.1972 29.6202L26.7351 33.0823C20.754 29.8184 15.8381 24.9025 12.5742 18.9214L16.0122 15.4833C16.998 14.5456 17.3586 13.1512 16.9258 11.8048C16.0603 9.18419 15.6276 6.41932 15.6276 3.60636C15.6276 2.64989 15.2476 1.7326 14.5713 1.05628C13.895 0.379955 12.9777 0 12.0212 0H3.60636C2.64989 0 1.7326 0.379955 1.05628 1.05628C0.379955 1.7326 0 2.64989 0 3.60636C0 26.8073 18.8733 45.6805 42.0742 45.6805ZM3.60636 2.40424H12.0212C12.34 2.40424 12.6458 2.53089 12.8712 2.75633C13.0967 2.98177 13.2233 3.28754 13.2233 3.60636C13.2233 6.68379 13.7042 9.68909 14.6418 12.5501C14.762 12.8867 14.738 13.3676 14.3533 13.7522L9.61696 18.4646C13.584 26.2303 19.4022 32.0485 27.1919 36.0636L31.8802 31.3272C32.2168 30.9906 32.6736 30.8945 33.1064 31.0147C35.9915 31.9764 38.9968 32.4572 42.0742 32.4572C42.393 32.4572 42.6988 32.5839 42.9242 32.8093C43.1497 33.0348 43.2763 33.3405 43.2763 33.6594V42.0742C43.2763 42.393 43.1497 42.6988 42.9242 42.9242C42.6988 43.1497 42.393 43.2763 42.0742 43.2763C20.1956 43.2763 2.40424 25.4849 2.40424 3.60636C2.40424 3.28754 2.53089 2.98177 2.75633 2.75633C2.98177 2.53089 3.28754 2.40424 3.60636 2.40424Z" fill="#51483F"/>
</svg>
