<svg width="31" height="31" viewBox="0 0 31 31" fill="none" xmlns="http://www.w3.org/2000/svg">
<path d="M5.21444 29.604C5.21437 29.4829 5.23818 29.3629 5.28452 29.2509C5.33084 29.139 5.39879 29.0373 5.48445 28.9516C5.57012 28.866 5.67183 28.798 5.78377 28.7517C5.89571 28.7054 6.01568 28.6816 6.13683 28.6816L27.3778 28.6816L0.270051 1.57385C0.0971668 1.40097 3.88462e-05 1.16649 4.15436e-05 0.92199C4.01949e-05 0.677494 0.0971668 0.443011 0.270051 0.270126C0.442937 0.0972406 0.67742 0.000114076 0.921917 0.000115425C1.16641 0.000112727 1.40089 0.097242 1.57378 0.270126L28.6815 27.3779L28.6815 6.1369C28.6815 6.01577 28.7054 5.89583 28.7518 5.78392C28.7981 5.67201 28.8661 5.57033 28.9517 5.48468C29.0374 5.39902 29.139 5.33108 29.251 5.28473C29.3629 5.23837 29.4828 5.21451 29.6039 5.21451C29.7251 5.21452 29.845 5.23837 29.9569 5.28473C30.0688 5.33108 30.1705 5.39902 30.2562 5.48468C30.3418 5.57033 30.4098 5.67201 30.4561 5.78392C30.5025 5.89583 30.5263 6.01577 30.5263 6.1369L30.5263 29.604C30.5264 29.7252 30.5026 29.8451 30.4562 29.9571C30.4099 30.069 30.342 30.1707 30.2563 30.2564C30.1706 30.342 30.0689 30.41 29.957 30.4563C29.8451 30.5027 29.7251 30.5265 29.6039 30.5264L6.13683 30.5264C6.01568 30.5265 5.89571 30.5026 5.78377 30.4563C5.67182 30.41 5.57012 30.342 5.48445 30.2564C5.39879 30.1707 5.33084 30.069 5.28452 29.9571C5.23819 29.8451 5.21438 29.7252 5.21444 29.604Z" fill="#51483F"/>
</svg>
