<svg width="44" height="44" viewBox="0 0 44 44" fill="none" xmlns="http://www.w3.org/2000/svg">
<path d="M8.94238 21.8017C8.94238 21.2909 9.1453 20.801 9.5065 20.4398C9.8677 20.0786 10.3576 19.8757 10.8684 19.8757H19.8386V10.9055C19.8386 10.3947 20.0415 9.90481 20.4027 9.54361C20.7639 9.18241 21.2538 8.97949 21.7646 8.97949C22.2754 8.97949 22.7653 9.18241 23.1265 9.54361C23.4877 9.90481 23.6906 10.3947 23.6906 10.9055V19.8757H32.6608C33.1716 19.8757 33.6615 20.0786 34.0227 20.4398C34.3839 20.801 34.5868 21.2909 34.5868 21.8017C34.5868 22.3125 34.3839 22.8024 34.0227 23.1636C33.6615 23.5248 33.1716 23.7277 32.6608 23.7277H23.6906V32.6979C23.6906 33.2087 23.4877 33.6986 23.1265 34.0598C22.7653 34.421 22.2754 34.6239 21.7646 34.6239C21.2538 34.6239 20.7639 34.421 20.4027 34.0598C20.0415 33.6986 19.8386 33.2087 19.8386 32.6979V23.7277H10.8684C10.3576 23.7277 9.8677 23.5248 9.5065 23.1636C9.1453 22.8024 8.94238 22.3125 8.94238 21.8017Z" fill="#DBC1A2"/>
<path fill-rule="evenodd" clip-rule="evenodd" d="M9.73865 0.664592C17.7316 -0.221531 25.798 -0.221531 33.7909 0.664592C38.4827 1.18847 42.2705 4.88388 42.8201 9.60136C43.7703 17.7087 43.7703 25.8981 42.8201 34.0054C42.268 38.7229 38.4801 42.4157 33.7909 42.9422C25.798 43.8283 17.7316 43.8283 9.73865 42.9422C5.04685 42.4157 1.259 38.7229 0.709438 34.0054C-0.236479 25.8982 -0.236479 17.7085 0.709438 9.60136C1.259 4.88388 5.04942 1.18847 9.73865 0.664592ZM33.3646 4.49097C25.655 3.63639 17.8746 3.63639 10.1649 4.49097C8.73774 4.6493 7.4056 5.28417 6.38372 6.293C5.36184 7.30183 4.7099 8.62571 4.53324 10.0508C3.61987 17.8601 3.61987 25.7493 4.53324 33.5586C4.71044 34.9832 5.36261 36.3064 6.38444 37.3148C7.40627 38.3231 8.73813 38.9576 10.1649 39.1158C17.81 39.9684 25.7195 39.9684 33.3646 39.1158C34.791 38.957 36.1222 38.3223 37.1435 37.314C38.1649 36.3058 38.8166 34.9828 38.9937 33.5586C39.9071 25.7493 39.9071 17.8601 38.9937 10.0508C38.8161 8.62703 38.1641 7.30463 37.1428 6.29687C36.1215 5.28911 34.7906 4.65475 33.3646 4.4961" fill="#DBC1A2"/>
</svg>
