<svg width="87" height="87" viewBox="0 0 87 87" fill="none" xmlns="http://www.w3.org/2000/svg">
<circle cx="43.3506" cy="43.3506" r="42.8794" stroke="url(#paint0_linear_17105_3)" stroke-width="0.942404"/>
<path d="M29.5126 40.2655C28.7638 40.2447 28.2958 40.4215 28.0046 40.7127C27.7134 41.0038 27.5366 41.4718 27.5574 42.2206C27.5782 42.9798 27.8278 43.9781 28.3062 45.0909C29.263 47.3268 31.1453 50.0203 33.6724 52.5578C36.1995 55.0849 38.9034 56.9568 41.1393 57.9135C42.2416 58.3919 43.24 58.6415 43.9992 58.6623C44.7583 58.6935 45.2159 58.5063 45.5071 58.2151C45.7983 57.924 45.9855 57.4664 45.9543 56.7072C45.9335 55.948 45.6839 54.9497 45.2055 53.8369C44.2488 51.6114 42.3768 48.9075 39.8497 46.3804C37.3226 43.8429 34.6188 41.971 32.3828 41.0142C31.2701 40.5359 30.2717 40.2863 29.5126 40.2655ZM26.2086 44.8413L24.3741 50.8626C28.6806 55.9688 33.7036 58.8391 39.153 60.711L41.3993 60.0247C41.0769 59.9103 40.7337 59.7751 40.3905 59.6295C37.853 58.5479 35.0139 56.5512 32.3516 53.8785C29.679 51.2058 27.6822 48.3667 26.5965 45.8292C26.4499 45.4965 26.3209 45.1637 26.2086 44.8413ZM23.7314 52.9738L22.2745 57.7576C25.2789 60.5654 28.4102 61.8342 31.6965 62.9781L36.2099 61.6054C31.7173 59.7751 27.4742 57.1024 23.7314 52.9738ZM21.6723 59.7439L19.5623 66.67L28.743 63.8725C26.375 62.9261 23.9821 61.7198 21.6723 59.7439Z" fill="#51483F"/>
<path d="M29.2526 18.9173L29.4294 21.1917L27.6926 22.6736L29.9181 23.2112L30.7917 25.3172L31.9876 23.3745L34.2548 23.1925L32.778 21.4548L33.3084 19.2376L31.1973 20.1059L29.2526 18.9173ZM64.7463 19.8199C64.305 19.8199 63.8818 19.9953 63.5697 20.3073C63.2577 20.6194 63.0824 21.0426 63.0824 21.4839C63.0824 21.9252 63.2577 22.3484 63.5697 22.6605C63.8818 22.9725 64.305 23.1478 64.7463 23.1478C65.1876 23.1478 65.6108 22.9725 65.9229 22.6605C66.2349 22.3484 66.4102 21.9252 66.4102 21.4839C66.4102 21.0426 66.2349 20.6194 65.9229 20.3073C65.6108 19.9953 65.1876 19.8199 64.7463 19.8199ZM41.4305 20.9119C40.9892 20.9119 40.5659 21.0872 40.2539 21.3993C39.9418 21.7113 39.7665 22.1345 39.7665 22.5758C39.7665 23.0171 39.9418 23.4404 40.2539 23.7524C40.5659 24.0645 40.9892 24.2398 41.4305 24.2398C41.8718 24.2398 42.295 24.0645 42.607 23.7524C42.9191 23.4404 43.0944 23.0171 43.0944 22.5758C43.0944 22.1345 42.9191 21.7113 42.607 21.3993C42.295 21.0872 41.8718 20.9119 41.4305 20.9119ZM60.5553 21.6232C59.5985 21.8042 58.7145 22.3699 57.8618 23.1083C57.0714 23.7874 56.333 24.6329 55.7091 25.547C53.754 25.86 51.7988 26.6566 50.4885 27.7444C48.8142 29.1172 47.327 31.4675 46.5159 33.8906C45.7463 34.213 45.0183 34.5977 44.4255 35.0137C42.8136 36.1473 41.9816 38.3208 41.3681 40.2135C40.7545 42.1166 40.4529 43.7806 40.4529 43.7806L42.304 44.1133C42.304 44.1133 42.5848 42.5534 43.1464 40.7959C43.7184 39.0384 44.6855 37.1248 45.5071 36.5529C45.6423 36.4593 45.8191 36.3553 45.9751 36.2617C45.9127 36.8544 45.9127 37.4472 46.0063 38.0088C46.1935 39.1943 46.8382 40.3279 47.9822 40.9415C48.7934 41.3783 49.7085 41.2743 50.4781 40.9623C51.2477 40.6399 51.934 40.1095 52.5268 39.4855C53.1196 38.8616 53.6084 38.1232 53.8995 37.3432C54.1907 36.5633 54.2947 35.6793 53.9203 34.8577H53.9099C53.5044 33.9842 52.7244 33.4226 51.8924 33.1834C51.0605 32.9442 50.1661 32.9546 49.2717 33.0898C49.1157 33.1106 48.9701 33.1626 48.8142 33.1938C49.5837 31.5507 50.6861 30.0011 51.674 29.1796C52.3188 28.6492 53.4004 28.1396 54.5547 27.7652C54.4091 28.1604 54.2947 28.5556 54.2427 28.9612C54.0763 30.0531 54.3155 31.2387 55.1891 32.0498C55.8235 32.6322 56.6762 32.7258 57.425 32.601C58.1634 32.4762 58.8809 32.1434 59.5257 31.7171C60.1705 31.2803 60.7425 30.7395 61.148 30.1051C61.5536 29.4707 61.824 28.6596 61.564 27.8484V27.838C61.2208 26.7908 60.3681 26.0711 59.4217 25.73C59.0161 25.5844 58.5898 25.5023 58.153 25.4534C58.4546 25.1144 58.7665 24.7972 59.0785 24.5258C59.7857 23.9184 60.5033 23.5378 60.9089 23.4619L60.5553 21.6232ZM34.6707 25.2683L33.09 26.2625L36.6779 32.0082L30.8125 32.3098L33.5684 38.3208L35.2739 37.5304L33.662 34.0362L39.9641 33.7138L34.6707 25.2683ZM57.1754 27.2764C57.8098 27.266 58.3714 27.3388 58.7873 27.4948C59.3489 27.6924 59.6297 27.942 59.7753 28.41C59.8169 28.5244 59.7961 28.7532 59.5777 29.0964C59.3489 29.45 58.9433 29.8451 58.4858 30.1571C58.0178 30.4691 57.4978 30.6875 57.113 30.7499C56.7178 30.8227 56.541 30.7499 56.4578 30.6771C56.0939 30.3443 55.9899 29.9283 56.0939 29.2316C56.177 28.67 56.437 27.994 56.8218 27.2972C56.9466 27.2972 57.061 27.2764 57.1754 27.2764ZM26.3708 29.2836C25.9295 29.2836 25.5063 29.4589 25.1943 29.7709C24.8822 30.083 24.7069 30.5062 24.7069 30.9475C24.7069 31.3888 24.8822 31.812 25.1943 32.1241C25.5063 32.4361 25.9295 32.6114 26.3708 32.6114C26.5894 32.6116 26.8059 32.5686 27.0079 32.4851C27.2099 32.4015 27.3935 32.279 27.5481 32.1244C27.7027 31.9699 27.8254 31.7864 27.9091 31.5845C27.9927 31.3825 28.0358 31.1661 28.0358 30.9475C28.0358 30.7289 27.9927 30.5124 27.9091 30.3105C27.8254 30.1085 27.7027 29.9251 27.5481 29.7705C27.3935 29.616 27.2099 29.4935 27.0079 29.4099C26.8059 29.3264 26.5894 29.2834 26.3708 29.2836ZM63.4048 33.1522L61.9072 34.8785L59.6401 34.6913L60.8257 36.6465L59.9417 38.7472L62.1672 38.2272L63.8935 39.7143L64.0911 37.4368L66.0358 36.2513L63.9351 35.3673L63.4048 33.1522ZM50.5613 34.8681C50.8629 34.8785 51.1437 34.9201 51.362 34.9825C51.8092 35.1073 52.0484 35.2945 52.2148 35.6481C52.3084 35.8457 52.3188 36.2097 52.142 36.6881C51.9652 37.1768 51.6012 37.7384 51.1645 38.2064C50.7277 38.6744 50.1973 39.0488 49.7605 39.2255C49.3237 39.4023 49.0533 39.3919 48.8766 39.2983H48.8662C48.263 38.9656 47.9718 38.4872 47.8574 37.7176C47.7534 37.0624 47.8262 36.2305 48.0446 35.3361C48.5542 35.1593 49.0637 35.0137 49.5525 34.9409C49.9165 34.8889 50.2493 34.8681 50.5613 34.8681ZM53.6396 43.5206L50.2077 49.1363L47.1814 46.2349L45.8919 47.5868L50.5821 52.0898L54.0971 46.3493L58.1218 49.7083L67.4086 45.7357L66.6806 44.0094L58.4338 47.5452L53.6396 43.5206ZM54.7627 53.0986C54.3214 53.0986 53.8982 53.2739 53.5861 53.5859C53.2741 53.898 53.0988 54.3212 53.0988 54.7625C53.0988 55.2038 53.2741 55.627 53.5861 55.9391C53.8982 56.2511 54.3214 56.4264 54.7627 56.4264C55.204 56.4264 55.6272 56.2511 55.9393 55.9391C56.2513 55.627 56.4266 55.2038 56.4266 54.7625C56.4266 54.3212 56.2513 53.898 55.9393 53.5859C55.6272 53.2739 55.204 53.0986 54.7627 53.0986Z" fill="#E3B47E"/>
<defs>
<linearGradient id="paint0_linear_17105_3" x1="26.1517" y1="6.83242" x2="72.0939" y2="80.8111" gradientUnits="userSpaceOnUse">
<stop stop-color="#51483F"/>
<stop offset="1" stop-color="#F8DCBC"/>
</linearGradient>
</defs>
</svg>
