<svg width="87" height="87" viewBox="0 0 87 87" fill="none" xmlns="http://www.w3.org/2000/svg">
<circle cx="43.3506" cy="43.3506" r="42.8794" stroke="url(#paint0_linear_17105_2)" stroke-width="0.942404"/>
<path d="M37.967 24.1246L35.5527 20.9353H41.0865L37.967 24.1246ZM45.6132 20.9353L48.6766 24.0628L51.0103 20.9353H45.6132ZM46.8485 24.7242L43.3504 21.152L39.8468 24.7287H46.8541L46.8485 24.7242ZM55.0079 24.7242L52.671 21.6574L50.3847 24.7287H55.0134L55.0079 24.7242ZM33.9175 21.699L31.6716 24.731H36.2185L33.9175 21.699ZM39.0113 26.4939L43.3504 38.4109L47.693 26.4939H39.0079H39.0113ZM31.739 26.4939L40.7227 36.3357L37.1293 26.4939H31.739ZM54.9686 26.4939H49.5785L45.9927 36.3357L54.9686 26.4939Z" fill="#E3B47E"/>
<path d="M53.0352 31.279L50.1469 34.4435C52.7051 35.7113 54.8587 37.668 56.3651 40.0934C57.8716 42.5188 58.671 45.3166 58.6735 48.1717C58.6713 56.6187 51.7987 63.4956 43.3507 63.4956C34.9027 63.4956 28.0301 56.6231 28.0301 48.175C28.0326 45.3199 28.8321 42.5221 30.3386 40.0967C31.845 37.6713 33.9986 35.7146 36.5568 34.4468L33.6685 31.2823C30.6948 32.9873 28.2235 35.4466 26.504 38.412C24.7845 41.3774 23.8778 44.7439 23.8752 48.1717C23.8751 58.9095 32.6117 67.6506 43.3507 67.6506C54.0897 67.6506 62.8263 58.914 62.8263 48.175C62.8248 44.746 61.9184 41.378 60.1987 38.4114C58.4789 35.4447 56.0067 32.9844 53.0318 31.279H53.0352Z" fill="#51483F"/>
<defs>
<linearGradient id="paint0_linear_17105_2" x1="26.1517" y1="6.83242" x2="72.0939" y2="80.8111" gradientUnits="userSpaceOnUse">
<stop stop-color="#51483F"/>
<stop offset="1" stop-color="#F8DCBC"/>
</linearGradient>
</defs>
</svg>
