<svg width="87" height="87" viewBox="0 0 87 87" fill="none" xmlns="http://www.w3.org/2000/svg">
<circle cx="43.3506" cy="43.3506" r="42.8794" stroke="url(#paint0_linear_17105_4)" stroke-width="0.942404"/>
<path d="M64.7461 39.7871H46.4429V26.4756C46.4429 26.0343 46.6182 25.6111 46.9302 25.2991C47.2423 24.987 47.6655 24.8117 48.1068 24.8117H49.7707C53.7425 24.8117 57.5515 26.3895 60.3599 29.1979C63.1684 32.0063 64.7461 35.8154 64.7461 39.7871Z" fill="#F1CB9F"/>
<path d="M49.7707 23.1478H48.1068C47.2242 23.1478 46.3777 23.4984 45.7536 24.1225C45.1295 24.7466 44.7789 25.5931 44.7789 26.4757V38.1232H27.9732C27.5871 36.2453 26.5653 34.5579 25.0801 33.3455C23.5949 32.1331 21.7371 31.4698 19.8199 31.4675C19.3786 31.4675 18.9554 31.6428 18.6434 31.9548C18.3313 32.2669 18.156 32.6901 18.156 33.1314C18.156 33.5727 18.3313 33.9959 18.6434 34.308C18.9554 34.62 19.3786 34.7953 19.8199 34.7953C21.1438 34.7953 22.4135 35.3212 23.3497 36.2574C24.2858 37.1935 24.8117 38.4632 24.8117 39.7871C24.8167 44.1986 26.5713 48.428 29.6907 51.5474C32.8101 54.6668 37.0395 56.4215 41.451 56.4264H49.7707C54.1837 56.4264 58.416 54.6734 61.5365 51.5529C64.657 48.4324 66.41 44.2001 66.41 39.7871C66.41 35.3741 64.657 31.1418 61.5365 28.0213C58.416 24.9009 54.1837 23.1478 49.7707 23.1478ZM62.974 38.1232H51.1871L59.8936 31.1575C61.5797 33.1281 62.6507 35.55 62.974 38.1232ZM49.7707 26.4757C52.5028 26.4732 55.1686 27.3168 57.4019 28.8904L48.1068 36.3241V26.4757H49.7707ZM49.7707 53.0986H41.451C38.2099 53.0946 35.0811 51.91 32.6502 49.7662C30.2193 47.6224 28.6527 44.6663 28.2436 41.451H62.9782C62.569 44.6663 61.0025 47.6224 58.5715 49.7662C56.1406 51.91 53.0119 53.0946 49.7707 53.0986ZM38.1232 63.0821C38.1232 63.7403 37.928 64.3837 37.5623 64.931C37.1967 65.4783 36.6769 65.9048 36.0688 66.1567C35.4607 66.4086 34.7916 66.4745 34.1461 66.3461C33.5005 66.2177 32.9076 65.9007 32.4422 65.4353C31.9768 64.9699 31.6598 64.3769 31.5314 63.7314C31.403 63.0858 31.4689 62.4167 31.7208 61.8086C31.9727 61.2005 32.3992 60.6808 32.9465 60.3151C33.4937 59.9495 34.1371 59.7543 34.7953 59.7543C35.6779 59.7543 36.5244 60.1049 37.1485 60.729C37.7726 61.3531 38.1232 62.1995 38.1232 63.0821ZM59.7543 63.0821C59.7543 63.7403 59.5591 64.3837 59.1934 64.931C58.8278 65.4783 58.308 65.9048 57.6999 66.1567C57.0919 66.4086 56.4227 66.4745 55.7772 66.3461C55.1317 66.2177 54.5387 65.9007 54.0733 65.4353C53.6079 64.9699 53.2909 64.3769 53.1625 63.7314C53.0341 63.0858 53.1 62.4167 53.3519 61.8086C53.6038 61.2005 54.0303 60.6808 54.5776 60.3151C55.1248 59.9495 55.7682 59.7543 56.4264 59.7543C57.309 59.7543 58.1555 60.1049 58.7796 60.729C59.4037 61.3531 59.7543 62.1995 59.7543 63.0821Z" fill="#51483F"/>
<defs>
<linearGradient id="paint0_linear_17105_4" x1="26.1517" y1="6.83242" x2="72.0939" y2="80.8111" gradientUnits="userSpaceOnUse">
<stop stop-color="#51483F"/>
<stop offset="1" stop-color="#F8DCBC"/>
</linearGradient>
</defs>
</svg>
